Coordinates
version=1
nRows=4
nColumns=63
inDegrees=yes

Units are S.I. units (second, meters, Newtons, ...)
If the header above contains a line with 'inDegrees', this indicates whether rotational values are in degrees (yes) or radians (no).

endheader
time	pelvis_tilt	pelvis_list	pelvis_rotation	pelvis_tx	pelvis_ty	pelvis_tz	hip_flexion_r	hip_adduction_r	hip_rotation_r	knee_angle_r	knee_angle_r_beta	ankle_angle_r	subtalar_angle_r	mtp_angle_r	hip_flexion_l	hip_adduction_l	hip_rotation_l	knee_angle_l	knee_angle_l_beta	ankle_angle_l	subtalar_angle_l	mtp_angle_l	L5_S1_Flex_Ext	L5_S1_Lat_Bending	L5_S1_axial_rotation	L4_L5_Flex_Ext	L4_L5_Lat_Bending	L4_L5_axial_rotation	L3_L4_Flex_Ext	L3_L4_Lat_Bending	L3_L4_axial_rotation	L2_L3_Flex_Ext	L2_L3_Lat_Bending	L2_L3_axial_rotation	L1_L2_Flex_Ext	L1_L2_Lat_Bending	L1_L2_axial_rotation	L1_T12_Flex_Ext	L1_T12_Lat_Bending	L1_T12_axial_rotation	Abs_r3	Abs_r2	Abs_r1	Abs_t1	Abs_t2	neck_flexion	neck_bending	neck_rotation	arm_flex_r	arm_add_r	arm_rot_r	elbow_flex_r	pro_sup_r	wrist_flex_r	wrist_dev_r	arm_flex_l	arm_add_l	arm_rot_l	elbow_flex_l	pro_sup_l	wrist_flex_l	wrist_dev_l
      2.23728814	      1.13146118	     -0.39889770	     90.46059113	      0.20280648	      0.75631185	      0.87165143	      0.00021602	      2.81964135	      7.98801685	     11.82286953	      0.20634800	     37.58646989	      0.64793256	      0.00000000	     -3.19510978	     -0.58781104	      8.68976859	      3.97678968	      0.06940807	     36.18498344	    -10.60186166	      0.00000000	     -0.35293649	      0.22028292	      1.62398884	     -0.65543835	      0.29297628	      1.72548814	     -0.57983936	      0.53559589	      1.72548814	     -0.40337111	      0.53559589	      1.42099023	     -0.32773682	      0.44920093	      1.31949093	     -0.20166791	      0.34121824	      1.21799163	     -2.52099004	      2.49188442	      9.03213872	      0.00000000	      0.00000000	     11.54800255	      1.18853159	     -2.54553860	     -7.48870099	    -13.55756581	      2.38628488	     34.61074577	     83.97379208	     -5.69727032	      8.71991702	     13.06919641	     -8.90709470	    139.63104516	      9.85775449	      7.68863440	     -7.96511026	     -6.25259567
      2.25423729	      0.97899356	     -0.34591647	     89.99225390	      0.20326016	      0.75660096	      0.87131316	     -0.22182062	      2.76342671	      9.77927709	     11.53904329	      0.20139430	     37.10004791	     -1.20887201	      0.00000000	     -3.46773527	     -0.33728094	     10.47682635	      3.58307967	      0.06253654	     35.59354815	    -13.51678905	      0.00000000	     -0.35610967	      0.21664760	      1.61389341	     -0.66133127	      0.28814130	      1.71476175	     -0.58505258	      0.52675697	      1.71476175	     -0.40699774	      0.52675697	      1.41215674	     -0.33068344	      0.44178778	      1.31128840	     -0.20348107	      0.33558713	      1.21042006	     -2.54365576	      2.45076094	      8.97599100	      0.00000000	      0.00000000	     11.60041815	      1.14479111	     -1.68128073	     -7.10366561	    -13.64066973	      3.92119065	     33.86109538	     81.00810623	     -5.83042143	      8.97688222	     12.91282909	     -9.59831885	    134.14006595	     11.48537617	      7.48922460	     -7.86178797	     -6.79771235
      2.27118644	      0.83209951	     -0.22819235	     89.60743415	      0.20367405	      0.75695480	      0.87109844	     -0.52631173	      2.57262356	     10.22790613	     11.21366600	      0.19571539	     36.97545315	     -1.24079221	      0.00000000	     -3.70767569	     -0.14414873	     10.45360468	      3.42660939	      0.05980562	     35.61819050	    -13.92631674	      0.00000000	     -0.36636920	      0.21156262	      1.62850122	     -0.68038425	      0.28137828	      1.73028255	     -0.60190796	      0.51439335	      1.73028255	     -0.41872336	      0.51439335	      1.42493857	     -0.34021044	      0.43141849	      1.32315724	     -0.20934336	      0.32771049	      1.22137591	     -2.61693857	      2.39323864	      9.05723523	      0.00000000	      0.00000000	     11.61342485	      1.17409941	     -0.99100358	     -6.80506216	    -13.37789259	      4.21268941	     32.96440185	     80.13026013	     -5.31391953	      9.28800778	     12.92865011	     -9.90847074	    132.49705614	     12.37594856	      6.74833750	     -7.38887714	     -6.54623091
      2.28813559	      0.70431843	     -0.15945532	     89.35256860	      0.20404020	      0.75728349	      0.87090121	     -0.84100061	      2.51334833	     11.69238045	     10.82273238	      0.18889231	     36.56798699	     -2.89746817	      0.00000000	     -3.83830727	      0.02655416	     10.65102709	      3.39922241	      0.05932762	     35.58765727	    -14.54197339	      0.00000000	     -0.36392223	      0.20384017	      1.59504508	     -0.67583998	      0.27110743	      1.69473540	     -0.59788784	      0.49561699	      1.69473540	     -0.41592672	      0.49561699	      1.39566445	     -0.33793819	      0.41567088	      1.29597413	     -0.20794517	      0.31574843	      1.19628381	     -2.59946013	      2.30588079	      8.87116223	      0.00000000	      0.00000000	     11.63866585	      1.30632094	     -0.32506135	     -6.15066579	    -13.61540010	      7.53973931	     31.71868635	     75.68526363	     -5.89955256	      8.75672519	     12.77178212	    -10.67534606	    126.52032072	     13.89486105	     10.62937279	     -8.12749227	     -5.85066183
